:SAMPLES-PER-SECOND 30
:FULLY-SPECIFIED
:DEGREES
427
root  32.6221 34.1586 14.0193 -172.334 36.2091 -178.235
LeftUpLeg  -10.1176 13.7949 7.8048
LeftLeg  15.1451 21.5822 4.26425
LeftFoot  5.13598 -0.0921895 1.96907
LeftToes  -22.1495 2.48695e-006 -1.03773e-007
Spine  0.745851 -0.792315 0.853317
Spine1  0.932337 -1.77598 1.83046
RightShoulder  0.168926 8.65524 9.42845
RightArm  -26.332 -14.5044 70.3692
RightForeArm  33.6238 12.698 2.27085
RightHand  0.215073 -5.03525 -4.51261
LeftShoulder1  0.122364 -3.40794 -11.6878
LeftArm  -9.611 10.2914 -69.2689
LeftForeArm  31.4264 -15.4679 -2.78942
LeftHand  0.0961486 3.19633 3.16456
HEad  -14.0812 -27.6595 6.33648
RightUpLeg  -13.0959 -5.53447 0.44843
RightLeg  16.8865 23.8479 5.43004
RightFoot  -1.102 -0.0110229 -0.470389
RightToes  -25.1608 -0.112757 -0.216862
428
root  32.7041 34.1508 14.0579 -172.241 36.7044 -178.079
LeftUpLeg  -10.0187 13.6502 8.08153
LeftLeg  15.3418 22.1403 4.44543
LeftFoot  5.12528 -0.0956475 2.02284
LeftToes  -22.0937 2.48695e-006 -1.03773e-007
Spine  0.742314 -0.760835 0.957961
Spine1  0.932006 -1.71266 2.02386
RightShoulder  0.170031 8.63001 9.46816
RightArm  -26.5511 -14.7771 70.0064
RightForeArm  33.6573 12.5289 2.2396
RightHand  0.22673 -5.09437 -4.71723
LeftShoulder1  0.120617 -3.30305 -11.5838
LeftArm  -9.79045 10.4953 -69.7922
LeftForeArm  31.5097 -15.2399 -2.74621
LeftHand  0.0950647 3.30475 3.11557
HEad  -14.1154 -27.3713 6.324
RightUpLeg  -13.0924 -5.51696 0.714078
RightLeg  16.9062 24.3057 5.53614
RightFoot  -1.07557 -0.0112479 -0.471932
RightToes  -25.03 -0.111237 -0.215241
429
root  32.782 34.1448 14.0873 -172.144 37.1191 -177.944
LeftUpLeg  -9.91653 13.4822 8.32233
LeftLeg  15.4637 22.6514 4.59101
LeftFoot  5.15138 -0.0998312 2.08791
LeftToes  -22.0501 2.48695e-006 -1.03773e-007
Spine  0.746992 -0.736749 1.05581
Spine1  0.950831 -1.65872 2.19827
RightShoulder  0.171108 8.60701 9.52686
RightArm  -26.9811 -14.9696 69.6788
RightForeArm  33.788 12.3005 2.19737
RightHand  0.234438 -5.1214 -4.86221
LeftShoulder1  0.116914 -3.19051 -11.4081
LeftArm  -9.94177 10.7534 -70.3684
LeftForeArm  31.5576 -15.0488 -2.71009
LeftHand  0.0992188 3.22341 3.14843
HEad  -14.0514 -27.1322 6.37358
RightUpLeg  -13.1129 -5.46224 0.946281
RightLeg  16.9812 24.6525 5.64262
RightFoot  -1.07644 -0.0107791 -0.483034
RightToes  -24.7954 -0.109773 -0.213638
430
root  32.8519 34.1399 14.1041 -172.021 37.4779 -177.787
LeftUpLeg  -9.88089 13.918 8.553
LeftLeg  15.6246 22.5716 4.6398
LeftFoot  5.09237 -0.0976846 2.05452
LeftToes  -22.0115 2.48695e-006 -1.03773e-007
Spine  0.733312 -0.716117 1.1637
Spine1  0.934931 -1.6075 2.38923
RightShoulder  0.172073 8.62356 9.59183
RightArm  -27.5219 -15.1828 69.3768
RightForeArm  33.9791 12.0478 2.15074
RightHand  0.243905 -5.16816 -5.02398
LeftShoulder1  0.112958 -3.07604 -11.2682
LeftArm  -9.94365 11.1578 -70.8761
LeftForeArm  31.5276 -14.9692 -2.69509
LeftHand  0.106102 3.49238 3.10314
HEad  -13.9066 -26.9612 6.34315
RightUpLeg  -13.1359 -5.46697 1.17258
RightLeg  17.0623 25.011 5.755
RightFoot  -1.09085 -0.00983883 -0.500454
RightToes  -24.4762 -0.108203 -0.211802
431
root  32.9148 34.1331 14.1223 -171.891 37.8287 -177.622
LeftUpLeg  -9.80669 13.9301 8.78301
LeftLeg  15.7331 22.881 4.74354
LeftFoot  5.1321 -0.100925 2.10492
LeftToes  -22.2679 2.48695e-006 -1.03773e-007
Spine  0.699195 -0.67564 1.27219
Spine1  0.877481 -1.51757 2.58613
RightShoulder  0.172858 8.63713 9.60911
RightArm  -28.2275 -15.4246 69.1949
RightForeArm  34.2864 11.813 2.10736
RightHand  0.250269 -5.20767 -5.12255
LeftShoulder1  0.108726 -2.98128 -11.1588
LeftArm  -9.84265 11.6626 -71.2929
LeftForeArm  31.506 -14.9706 -2.69538
LeftHand  0.103527 3.50384 3.00786
HEad  -13.7443 -26.7869 6.19528
RightUpLeg  -13.1826 -5.32497 1.39446
RightLeg  17.173 25.2122 5.8474
RightFoot  -1.12326 -0.00854151 -0.52263
RightToes  -24.1686 -0.10659 -0.209464
432
root  32.9715 34.1288 14.1355 -171.876 37.994 -177.607
LeftUpLeg  -9.75656 13.8446 8.88791
LeftLeg  15.8354 23.0853 4.82506
LeftFoot  5.1416 -0.102738 2.13311
LeftToes  -22.2452 2.48695e-006 -1.03773e-007
Spine  0.687984 -0.687118 1.32512
Spine1  0.868687 -1.52671 2.66991
RightShoulder  0.173651 8.57988 9.79783
RightArm  -28.3601 -15.5835 68.9681
RightForeArm  34.1555 11.6847 2.08393
RightHand  0.252584 -5.28843 -5.21603
LeftShoulder1  0.103918 -2.86517 -11.0453
LeftArm  -9.5087 12.1466 -71.5381
LeftForeArm  31.2893 -15.0793 -2.71602
LeftHand  0.101646 3.57941 2.89409
HEad  -13.6267 -26.5843 6.1655
RightUpLeg  -13.1886 -5.41236 1.48937
RightLeg  17.2694 25.4705 5.94647
RightFoot  -1.17217 -0.0066542 -0.553394
RightToes  -23.8457 -0.104953 -0.207746
433
root  33.0247 34.1254 14.142 -171.792 38.1441 -177.489
LeftUpLeg  -9.72647 13.781 9.0624
LeftLeg  15.9722 23.2676 4.91705
LeftFoot  5.10662 -0.103154 2.13958
LeftToes  -22.21 2.48695e-006 -1.03773e-007
Spine  0.67124 -0.682228 1.40352
Spine1  0.845589 -1.50683 2.81194
RightShoulder  0.174218 8.63925 9.87772
RightArm  -28.7863 -15.7997 68.8805
RightForeArm  34.3141 11.5778 2.06422
RightHand  0.253175 -5.25565 -5.20038
LeftShoulder1  0.101061 -2.81387 -10.9827
LeftArm  -9.27702 12.6144 -71.7187
LeftForeArm  31.235 -15.099 -2.71977
LeftHand  0.100655 3.57478 2.79375
HEad  -13.528 -26.479 6.10662
RightUpLeg  -13.181 -5.57985 1.65678
RightLeg  17.3663 25.7995 6.06187
RightFoot  -1.16888 -0.00626066 -0.560591
RightToes  -23.6406 -0.103309 -0.206282
